<svg width="324" height="72" viewBox="0 0 324 72" fill="none" xmlns="http://www.w3.org/2000/svg">
<path d="M315.9 0.900391H8.09981C4.62041 0.900391 1.7998 3.721 1.7998 7.20039V64.8004C1.7998 68.2798 4.62041 71.1004 8.09981 71.1004H315.9C319.379 71.1004 322.2 68.2798 322.2 64.8004V7.20039C322.2 3.721 319.379 0.900391 315.9 0.900391Z" fill="white"/>
<mask id="mask0_19_1048" style="mask-type:luminance" maskUnits="userSpaceOnUse" x="22" y="18" width="37" height="37">
<path d="M58.501 18.001H22.501V54.001H58.501V18.001Z" fill="white"/>
</mask>
<g mask="url(#mask0_19_1048)">
<path d="M57.781 36.4094C57.781 35.1331 57.6665 33.9058 57.4537 32.7275H40.501V39.6903H50.1882C49.771 41.9403 48.5029 43.8467 46.5965 45.1231V49.6394H52.4137C55.8174 46.5058 57.781 41.8912 57.781 36.4094Z" fill="#4285F4"/>
<path d="M40.501 54.0009C45.361 54.0009 49.4355 52.389 52.4136 49.64L46.5964 45.1237C44.9847 46.2037 42.9228 46.8418 40.501 46.8418C35.8128 46.8418 31.8447 43.6754 30.4291 39.4209H24.4155V44.0845C27.3774 49.9673 33.4647 54.0009 40.501 54.0009Z" fill="#34A853"/>
<path d="M30.4291 39.4216C30.0691 38.3416 29.8646 37.188 29.8646 36.0016C29.8646 34.8152 30.0691 33.6616 30.4291 32.5816V27.918H24.4155C23.1965 30.348 22.501 33.0971 22.501 36.0016C22.501 38.9061 23.1965 41.6552 24.4155 44.0852L30.4291 39.4216Z" fill="#FBBC04"/>
<path d="M40.501 25.1601C43.1436 25.1601 45.5164 26.0682 47.3819 27.8518L52.5447 22.6891C49.4274 19.7846 45.3528 18.001 40.501 18.001C33.4647 18.001 27.3774 22.0346 24.4155 27.9174L30.4291 32.581C31.8447 28.3265 35.8128 25.1601 40.501 25.1601Z" fill="#E94235"/>
</g>
<path d="M87.7474 40.3863C87.7474 40.0171 87.69 39.6891 87.5751 39.4019C87.4686 39.1148 87.2758 38.8523 86.997 38.6144C86.718 38.3766 86.3243 38.1469 85.8156 37.9253C85.3152 37.6956 84.6753 37.4618 83.8961 37.224C83.0429 36.9616 82.2554 36.6704 81.5336 36.3503C80.8199 36.0222 80.1966 35.6449 79.6632 35.2183C79.1301 34.7836 78.7159 34.2873 78.4205 33.7295C78.1251 33.1634 77.9775 32.5113 77.9775 31.7731C77.9775 31.043 78.1293 30.3785 78.4327 29.7796C78.7445 29.1809 79.1833 28.6641 79.7494 28.2293C80.3236 27.7863 81.0004 27.4459 81.7796 27.2079C82.559 26.9619 83.4203 26.8389 84.3637 26.8389C85.6925 26.8389 86.8369 27.085 87.7967 27.5771C88.7647 28.0694 89.507 28.7297 90.0238 29.5582C90.5489 30.3867 90.8113 31.3013 90.8113 32.3021H87.7474C87.7474 31.7115 87.6203 31.1906 87.3659 30.7394C87.1199 30.28 86.7426 29.9191 86.2339 29.6567C85.7335 29.3942 85.0978 29.2628 84.3268 29.2628C83.5967 29.2628 82.9896 29.3737 82.5056 29.5951C82.0217 29.8167 81.6607 30.116 81.4229 30.4933C81.1849 30.8708 81.0659 31.2972 81.0659 31.7731C81.0659 32.1093 81.1439 32.417 81.2998 32.696C81.4557 32.9667 81.6936 33.2208 82.0135 33.4588C82.3333 33.6885 82.7353 33.9059 83.2193 34.1109C83.7033 34.316 84.2734 34.5129 84.9296 34.7015C85.9222 34.9969 86.7876 35.325 87.526 35.6859C88.2643 36.0387 88.8796 36.4407 89.3717 36.8918C89.8638 37.343 90.233 37.8557 90.479 38.4299C90.7251 38.996 90.8482 39.6398 90.8482 40.3618C90.8482 41.1164 90.6965 41.7973 90.393 42.4043C90.0895 43.0031 89.6546 43.5158 89.0887 43.9424C88.5309 44.3607 87.8583 44.6847 87.0708 44.9144C86.2914 45.1359 85.422 45.2466 84.4622 45.2466C83.6007 45.2466 82.7518 45.1318 81.915 44.9021C81.0865 44.6724 80.3319 44.3238 79.651 43.8563C78.97 43.3804 78.4288 42.7898 78.0268 42.0844C77.6247 41.3707 77.4238 40.538 77.4238 39.5865H80.5123C80.5123 40.169 80.6107 40.6653 80.8077 41.0753C81.0127 41.4855 81.2956 41.8218 81.6567 42.0844C82.0176 42.3387 82.4359 42.5274 82.9117 42.6503C83.3957 42.7734 83.9125 42.835 84.4622 42.835C85.184 42.835 85.787 42.7324 86.2708 42.5274C86.7631 42.3222 87.1321 42.0351 87.3784 41.6661C87.6244 41.2969 87.7474 40.8703 87.7474 40.3863ZM96.4592 31.6869V45.0006H93.4815V31.6869H96.4592ZM93.2845 28.1924C93.2845 27.7413 93.4321 27.368 93.7275 27.0726C94.031 26.7691 94.4495 26.6174 94.9827 26.6174C95.5075 26.6174 95.9219 26.7691 96.2254 27.0726C96.5289 27.368 96.6806 27.7413 96.6806 28.1924C96.6806 28.6353 96.5289 29.0045 96.2254 29.2997C95.9219 29.5951 95.5075 29.7427 94.9827 29.7427C94.4495 29.7427 94.031 29.5951 93.7275 29.2997C93.4321 29.0045 93.2845 28.6353 93.2845 28.1924ZM108.235 31.6869H110.93V44.6314C110.93 45.8291 110.675 46.8463 110.167 47.6829C109.658 48.5198 108.948 49.1555 108.038 49.5902C107.127 50.0332 106.073 50.2546 104.876 50.2546C104.367 50.2546 103.801 50.1808 103.178 50.0332C102.562 49.8856 101.963 49.6476 101.381 49.3195C100.807 48.9996 100.327 48.5772 99.9415 48.0521L101.332 46.3049C101.808 46.871 102.333 47.2851 102.907 47.5476C103.481 47.8102 104.084 47.9414 104.716 47.9414C105.397 47.9414 105.975 47.8143 106.451 47.56C106.935 47.3139 107.308 46.9489 107.57 46.4649C107.833 45.9809 107.964 45.3903 107.964 44.693V34.7015L108.235 31.6869ZM99.1909 38.4914V38.2329C99.1909 37.224 99.3138 36.3053 99.5599 35.4768C99.8061 34.64 100.159 33.9223 100.618 33.3234C101.077 32.7165 101.635 32.253 102.292 31.9329C102.948 31.6048 103.69 31.4408 104.519 31.4408C105.38 31.4408 106.114 31.5967 106.721 31.9085C107.337 32.22 107.849 32.6672 108.259 33.2496C108.669 33.8238 108.99 34.5129 109.219 35.3168C109.457 36.1125 109.633 36.9985 109.748 37.9746V38.799C109.642 39.7505 109.461 40.6201 109.207 41.4076C108.952 42.1951 108.616 42.876 108.198 43.4502C107.78 44.0244 107.263 44.4674 106.647 44.7792C106.04 45.0908 105.323 45.2466 104.494 45.2466C103.682 45.2466 102.948 45.0785 102.292 44.7421C101.644 44.4059 101.086 43.9343 100.618 43.3271C100.159 42.7202 99.8061 42.0065 99.5599 41.1862C99.3138 40.3577 99.1909 39.4593 99.1909 38.4914ZM102.156 38.2329V38.4914C102.156 39.0984 102.214 39.6645 102.328 40.1894C102.452 40.7144 102.636 41.1779 102.882 41.5799C103.136 41.9737 103.457 42.2853 103.842 42.515C104.236 42.7365 104.699 42.8472 105.232 42.8472C105.93 42.8472 106.5 42.6996 106.943 42.4043C107.394 42.1091 107.739 41.7111 107.976 41.2107C108.222 40.7022 108.395 40.1361 108.493 39.5127V37.2856C108.444 36.8016 108.341 36.3503 108.185 35.932C108.038 35.5137 107.837 35.1486 107.583 34.8369C107.328 34.517 107.008 34.271 106.623 34.0987C106.237 33.9182 105.782 33.828 105.257 33.828C104.724 33.828 104.26 33.9428 103.867 34.1725C103.473 34.4022 103.149 34.7179 102.895 35.1198C102.648 35.5218 102.464 35.9894 102.341 36.5226C102.218 37.0559 102.156 37.626 102.156 38.2329ZM116.946 34.5293V45.0006H113.981V31.6869H116.774L116.946 34.5293ZM116.417 37.8515L115.458 37.8393C115.466 36.8959 115.597 36.0305 115.851 35.243C116.114 34.4555 116.475 33.7787 116.934 33.2127C117.402 32.6466 117.96 32.2119 118.608 31.9085C119.256 31.5967 119.977 31.4408 120.773 31.4408C121.413 31.4408 121.991 31.531 122.508 31.7115C123.033 31.8838 123.48 32.1668 123.849 32.5606C124.227 32.9543 124.514 33.4669 124.711 34.0987C124.908 34.722 125.006 35.489 125.006 36.3996V45.0006H122.028V36.3872C122.028 35.7475 121.934 35.243 121.745 34.8738C121.565 34.4965 121.298 34.2299 120.945 34.074C120.601 33.9099 120.17 33.828 119.653 33.828C119.145 33.828 118.69 33.9345 118.288 34.1478C117.886 34.3611 117.545 34.6524 117.266 35.0216C116.996 35.3906 116.787 35.8172 116.639 36.3012C116.491 36.7852 116.417 37.302 116.417 37.8515ZM142.319 41.8628V31.6869H145.296V45.0006H142.491L142.319 41.8628ZM142.737 39.0944L143.734 39.0698C143.734 39.9638 143.635 40.7882 143.438 41.543C143.242 42.2894 142.938 42.9416 142.528 43.4994C142.118 44.0491 141.593 44.4797 140.953 44.7914C140.313 45.0949 139.546 45.2466 138.652 45.2466C138.004 45.2466 137.409 45.1523 136.868 44.9637C136.326 44.775 135.859 44.4838 135.465 44.09C135.079 43.6963 134.78 43.1837 134.567 42.5519C134.354 41.9202 134.247 41.1657 134.247 40.2878V31.6869H137.212V40.3125C137.212 40.7965 137.27 41.2026 137.385 41.5307C137.499 41.8506 137.655 42.1091 137.852 42.3058C138.049 42.5027 138.279 42.6422 138.541 42.7243C138.804 42.8062 139.083 42.8472 139.378 42.8472C140.223 42.8472 140.887 42.6833 141.371 42.3551C141.863 42.0187 142.212 41.5676 142.417 41.0015C142.63 40.4356 142.737 39.7998 142.737 39.0944ZM151.313 34.2463V50.1194H148.348V31.6869H151.08L151.313 34.2463ZM159.988 38.2207V38.4792C159.988 39.447 159.873 40.3452 159.644 41.1738C159.422 41.9942 159.09 42.7119 158.647 43.3271C158.212 43.9343 157.675 44.4059 157.035 44.7421C156.395 45.0785 155.657 45.2466 154.82 45.2466C153.992 45.2466 153.266 45.0949 152.642 44.7914C152.027 44.4797 151.506 44.0408 151.08 43.4747C150.653 42.9088 150.309 42.2444 150.046 41.4814C149.792 40.7103 149.611 39.8654 149.505 38.9466V37.95C149.611 36.9738 149.792 36.0879 150.046 35.2921C150.309 34.4965 150.653 33.8116 151.08 33.2372C151.506 32.663 152.027 32.22 152.642 31.9085C153.258 31.5967 153.975 31.4408 154.796 31.4408C155.632 31.4408 156.375 31.6048 157.023 31.9329C157.671 32.253 158.216 32.7123 158.659 33.3112C159.102 33.9018 159.435 34.6155 159.656 35.4521C159.878 36.2807 159.988 37.2035 159.988 38.2207ZM157.023 38.4792V38.2207C157.023 37.6055 156.965 37.0354 156.851 36.5103C156.736 35.9772 156.555 35.5095 156.309 35.1076C156.063 34.7057 155.747 34.3939 155.362 34.1725C154.984 33.9428 154.529 33.828 153.996 33.828C153.471 33.828 153.02 33.9182 152.642 34.0987C152.265 34.271 151.949 34.5129 151.695 34.8246C151.441 35.1364 151.244 35.5014 151.104 35.9198C150.965 36.3298 150.866 36.7769 150.809 37.2609V39.6481C150.907 40.2387 151.076 40.7801 151.313 41.2722C151.551 41.7644 151.888 42.1582 152.322 42.4536C152.765 42.7407 153.331 42.8841 154.02 42.8841C154.554 42.8841 155.009 42.7693 155.386 42.5396C155.764 42.3099 156.071 41.9942 156.309 41.5921C156.555 41.1821 156.736 40.7103 156.851 40.1771C156.965 39.644 157.023 39.0779 157.023 38.4792ZM172.404 42.0475L175.48 31.6869H177.375L176.858 34.7877L173.757 45.0006H172.059L172.404 42.0475ZM170.595 31.6869L172.994 42.0966L173.191 45.0006H171.296L167.691 31.6869H170.595ZM180.254 41.9737L182.58 31.6869H185.471L181.878 45.0006H179.983L180.254 41.9737ZM177.695 31.6869L180.734 41.9244L181.115 45.0006H179.417L176.28 34.7753L175.763 31.6869H177.695ZM190.664 31.6869V45.0006H187.687V31.6869H190.664ZM187.489 28.1924C187.489 27.7413 187.637 27.368 187.932 27.0726C188.236 26.7691 188.654 26.6174 189.188 26.6174C189.712 26.6174 190.126 26.7691 190.43 27.0726C190.734 27.368 190.886 27.7413 190.886 28.1924C190.886 28.6353 190.734 29.0045 190.43 29.2997C190.126 29.5951 189.712 29.7427 189.188 29.7427C188.654 29.7427 188.236 29.5951 187.932 29.2997C187.637 29.0045 187.489 28.6353 187.489 28.1924ZM200.015 31.6869V33.8525H192.509V31.6869H200.015ZM194.675 28.4262H197.641V41.3216C197.641 41.7316 197.699 42.0475 197.814 42.2689C197.936 42.4822 198.104 42.6258 198.318 42.6996C198.53 42.7734 198.78 42.8103 199.068 42.8103C199.274 42.8103 199.47 42.7981 199.659 42.7734C199.848 42.7488 199.999 42.7243 200.114 42.6996L200.127 44.9637C199.88 45.0375 199.592 45.1032 199.265 45.1606C198.944 45.218 198.575 45.2466 198.158 45.2466C197.477 45.2466 196.874 45.1277 196.349 44.8899C195.823 44.6438 195.413 44.2458 195.117 43.6963C194.822 43.1468 194.675 42.4167 194.675 41.5061V28.4262ZM205.233 26.1006V45.0006H202.28V26.1006H205.233ZM204.715 37.8515L203.756 37.8393C203.765 36.9206 203.891 36.0715 204.137 35.2921C204.391 34.5129 204.744 33.8361 205.196 33.2619C205.655 32.6794 206.205 32.2325 206.844 31.9207C207.485 31.6008 208.194 31.4408 208.974 31.4408C209.629 31.4408 210.219 31.531 210.745 31.7115C211.278 31.8919 211.739 32.1831 212.124 32.5851C212.509 32.9789 212.801 33.4957 212.997 34.1356C213.202 34.7672 213.305 35.5383 213.305 36.4488V45.0006H210.327V36.4243C210.327 35.7844 210.232 35.2757 210.043 34.8984C209.863 34.5212 209.597 34.2504 209.244 34.0863C208.891 33.914 208.461 33.828 207.951 33.828C207.419 33.828 206.947 33.9345 206.537 34.1478C206.135 34.3611 205.799 34.6524 205.529 35.0216C205.257 35.3906 205.052 35.8172 204.913 36.3012C204.782 36.7852 204.715 37.302 204.715 37.8515ZM236.634 35.846V42.6872C236.381 43.0236 235.983 43.3928 235.441 43.7948C234.908 44.1884 234.197 44.529 233.312 44.8161C232.426 45.1032 231.323 45.2466 230.001 45.2466C228.878 45.2466 227.849 45.058 226.913 44.6807C225.978 44.2952 225.17 43.7332 224.49 42.9948C223.817 42.2567 223.296 41.3585 222.927 40.3002C222.558 39.2337 222.373 38.0196 222.373 36.6579V35.4152C222.373 34.0618 222.54 32.8558 222.877 31.7976C223.223 30.7313 223.714 29.8289 224.355 29.0906C224.994 28.3524 225.764 27.7946 226.668 27.4171C227.579 27.0317 228.608 26.8389 229.757 26.8389C231.224 26.8389 232.439 27.085 233.398 27.5771C234.366 28.0611 235.113 28.7338 235.637 29.5951C236.163 30.4564 236.494 31.4408 236.634 32.5482H233.607C233.51 31.9248 233.315 31.367 233.029 30.8747C232.75 30.3826 232.349 29.997 231.823 29.7182C231.306 29.4311 230.633 29.2875 229.805 29.2875C229.091 29.2875 228.464 29.4228 227.922 29.6936C227.381 29.9643 226.931 30.3621 226.569 30.8871C226.216 31.412 225.95 32.0519 225.77 32.8067C225.588 33.5614 225.498 34.4227 225.498 35.3906V36.6579C225.498 37.6424 225.6 38.5161 225.806 39.2789C226.02 40.0418 226.322 40.6858 226.716 41.2107C227.118 41.7357 227.607 42.1335 228.182 42.4043C228.756 42.6669 229.404 42.7981 230.126 42.7981C230.831 42.7981 231.409 42.7407 231.861 42.6258C232.311 42.5027 232.667 42.3593 232.93 42.1951C233.202 42.0228 233.411 41.8589 233.558 41.703V38.1469H229.83V35.846H236.634ZM239.194 38.4914V38.2085C239.194 37.2487 239.333 36.3586 239.612 35.5383C239.891 34.7098 240.292 33.992 240.818 33.385C241.35 32.7698 241.998 32.294 242.762 31.9576C243.534 31.6131 244.403 31.4408 245.37 31.4408C246.347 31.4408 247.217 31.6131 247.98 31.9576C248.75 32.294 249.402 32.7698 249.936 33.385C250.469 33.992 250.874 34.7098 251.153 35.5383C251.432 36.3586 251.573 37.2487 251.573 38.2085V38.4914C251.573 39.4512 251.432 40.3413 251.153 41.1615C250.874 41.9818 250.469 42.6996 249.936 43.3149C249.402 43.9218 248.754 44.3976 247.991 44.7421C247.229 45.0785 246.363 45.2466 245.395 45.2466C244.419 45.2466 243.545 45.0785 242.774 44.7421C242.011 44.3976 241.363 43.9218 240.83 43.3149C240.297 42.6996 239.891 41.9818 239.612 41.1615C239.333 40.3413 239.194 39.4512 239.194 38.4914ZM242.159 38.2085V38.4914C242.159 39.0903 242.22 39.6562 242.344 40.1894C242.466 40.7227 242.659 41.1902 242.922 41.5921C243.185 41.9942 243.521 42.3099 243.932 42.5396C244.34 42.7693 244.83 42.8841 245.395 42.8841C245.944 42.8841 246.421 42.7693 246.822 42.5396C247.233 42.3099 247.569 41.9942 247.832 41.5921C248.093 41.1902 248.288 40.7227 248.41 40.1894C248.541 39.6562 248.606 39.0903 248.606 38.4914V38.2085C248.606 37.6177 248.541 37.0599 248.41 36.535C248.288 36.0018 248.09 35.5301 247.82 35.1198C247.557 34.7098 247.22 34.3898 246.81 34.1601C246.408 33.9223 245.928 33.8033 245.37 33.8033C244.814 33.8033 244.329 33.9223 243.919 34.1601C243.516 34.3898 243.185 34.7098 242.922 35.1198C242.659 35.5301 242.466 36.0018 242.344 36.535C242.22 37.0599 242.159 37.6177 242.159 38.2085ZM253.491 38.4914V38.2085C253.491 37.2487 253.632 36.3586 253.911 35.5383C254.188 34.7098 254.591 33.992 255.115 33.385C255.65 32.7698 256.298 32.294 257.061 31.9576C257.831 31.6131 258.701 31.4408 259.669 31.4408C260.645 31.4408 261.514 31.6131 262.277 31.9576C263.048 32.294 263.701 32.7698 264.234 33.385C264.767 33.992 265.173 34.7098 265.452 35.5383C265.731 36.3586 265.87 37.2487 265.87 38.2085V38.4914C265.87 39.4512 265.731 40.3413 265.452 41.1615C265.173 41.9818 264.767 42.6996 264.234 43.3149C263.701 43.9218 263.053 44.3976 262.29 44.7421C261.527 45.0785 260.661 45.2466 259.692 45.2466C258.717 45.2466 257.844 45.0785 257.072 44.7421C256.31 44.3976 255.662 43.9218 255.128 43.3149C254.595 42.6996 254.188 41.9818 253.911 41.1615C253.632 40.3413 253.491 39.4512 253.491 38.4914ZM256.458 38.2085V38.4914C256.458 39.0903 256.519 39.6562 256.641 40.1894C256.764 40.7227 256.958 41.1902 257.219 41.5921C257.482 41.9942 257.819 42.3099 258.229 42.5396C258.639 42.7693 259.127 42.8841 259.692 42.8841C260.243 42.8841 260.718 42.7693 261.12 42.5396C261.53 42.3099 261.867 41.9942 262.13 41.5921C262.392 41.1902 262.585 40.7227 262.707 40.1894C262.839 39.6562 262.905 39.0903 262.905 38.4914V38.2085C262.905 37.6177 262.839 37.0599 262.707 36.535C262.585 36.0018 262.389 35.5301 262.117 35.1198C261.854 34.7098 261.518 34.3898 261.109 34.1601C260.706 33.9223 260.227 33.8033 259.669 33.8033C259.111 33.8033 258.627 33.9223 258.216 34.1601C257.815 34.3898 257.482 34.7098 257.219 35.1198C256.958 35.5301 256.764 36.0018 256.641 36.535C256.519 37.0599 256.458 37.6177 256.458 38.2085ZM276.882 31.6869H279.577V44.6314C279.577 45.8291 279.323 46.8463 278.814 47.6829C278.306 48.5198 277.597 49.1555 276.686 49.5902C275.775 50.0332 274.721 50.2546 273.524 50.2546C273.014 50.2546 272.449 50.1808 271.826 50.0332C271.211 49.8856 270.611 49.6476 270.03 49.3195C269.456 48.9996 268.975 48.5772 268.59 48.0521L269.979 46.3049C270.456 46.871 270.98 47.2851 271.554 47.5476C272.129 47.8102 272.732 47.9414 273.363 47.9414C274.044 47.9414 274.623 47.8143 275.099 47.56C275.583 47.3139 275.955 46.9489 276.218 46.4649C276.481 45.9809 276.612 45.3903 276.612 44.693V34.7015L276.882 31.6869ZM267.839 38.4914V38.2329C267.839 37.224 267.962 36.3053 268.208 35.4768C268.455 34.64 268.808 33.9223 269.267 33.3234C269.726 32.7165 270.284 32.253 270.939 31.9329C271.596 31.6048 272.339 31.4408 273.167 31.4408C274.028 31.4408 274.762 31.5967 275.369 31.9085C275.984 32.22 276.497 32.6672 276.908 33.2496C277.318 33.8238 277.638 34.5129 277.867 35.3168C278.105 36.1125 278.281 36.9985 278.396 37.9746V38.799C278.29 39.7505 278.11 40.6201 277.854 41.4076C277.601 42.1951 277.264 42.876 276.846 43.4502C276.427 44.0244 275.91 44.4674 275.295 44.7792C274.688 45.0908 273.97 45.2466 273.142 45.2466C272.33 45.2466 271.596 45.0785 270.939 44.7421C270.291 44.4059 269.735 43.9343 269.267 43.3271C268.808 42.7202 268.455 42.0065 268.208 41.1862C267.962 40.3577 267.839 39.4593 267.839 38.4914ZM270.804 38.2329V38.4914C270.804 39.0984 270.861 39.6645 270.977 40.1894C271.099 40.7144 271.284 41.1779 271.531 41.5799C271.785 41.9737 272.105 42.2853 272.49 42.515C272.885 42.7365 273.347 42.8472 273.88 42.8472C274.578 42.8472 275.147 42.6996 275.59 42.4043C276.042 42.1091 276.387 41.7111 276.625 41.2107C276.87 40.7022 277.043 40.1361 277.142 39.5127V37.2856C277.091 36.8016 276.989 36.3503 276.834 35.932C276.686 35.5137 276.485 35.1486 276.231 34.8369C275.977 34.517 275.657 34.271 275.271 34.0987C274.886 33.9182 274.431 33.828 273.905 33.828C273.372 33.828 272.908 33.9428 272.514 34.1725C272.121 34.4022 271.797 34.7179 271.542 35.1198C271.297 35.5218 271.112 35.9894 270.989 36.5226C270.865 37.0559 270.804 37.626 270.804 38.2329ZM285.828 26.1006V45.0006H282.851V26.1006H285.828ZM294.945 45.2466C293.963 45.2466 293.072 45.0868 292.276 44.7668C291.489 44.4386 290.816 43.9834 290.258 43.4009C289.709 42.8186 289.286 42.1335 288.991 41.346C288.696 40.5585 288.548 39.7095 288.548 38.799V38.3067C288.548 37.2651 288.699 36.3217 289.004 35.4768C289.306 34.6319 289.729 33.9099 290.271 33.3112C290.813 32.7041 291.452 32.2406 292.19 31.9207C292.928 31.6008 293.729 31.4408 294.589 31.4408C295.541 31.4408 296.373 31.6008 297.087 31.9207C297.8 32.2406 298.391 32.6918 298.859 33.2743C299.336 33.8485 299.688 34.5334 299.917 35.3292C300.155 36.1248 300.273 37.0025 300.273 37.9622V39.2296H289.988V37.1009H297.345V36.8671C297.329 36.3339 297.222 35.8335 297.026 35.3661C296.837 34.8984 296.546 34.5212 296.151 34.2341C295.759 33.9468 295.233 33.8033 294.576 33.8033C294.085 33.8033 293.646 33.9099 293.261 34.1232C292.883 34.3284 292.568 34.6277 292.314 35.0216C292.058 35.4152 291.862 35.891 291.722 36.4488C291.59 36.9985 291.525 37.6177 291.525 38.3067V38.799C291.525 39.3815 291.603 39.9228 291.759 40.4232C291.923 40.9155 292.161 41.346 292.472 41.7152C292.785 42.0844 293.162 42.3756 293.604 42.5889C294.047 42.794 294.553 42.8966 295.118 42.8966C295.833 42.8966 296.468 42.7529 297.026 42.4658C297.584 42.1787 298.067 41.7726 298.477 41.2476L300.039 42.7612C299.753 43.1795 299.381 43.5815 298.92 43.967C298.461 44.3443 297.899 44.6519 297.235 44.8899C296.578 45.1277 295.815 45.2466 294.945 45.2466Z" fill="#1F1F1F"/>
<path d="M315.9 0.900391H8.09981C4.62041 0.900391 1.7998 3.721 1.7998 7.20039V64.8004C1.7998 68.2798 4.62041 71.1004 8.09981 71.1004H315.9C319.379 71.1004 322.2 68.2798 322.2 64.8004V7.20039C322.2 3.721 319.379 0.900391 315.9 0.900391Z" stroke="#747775" stroke-width="1.2"/>
</svg>
